<svg width="55.000000" height="50.000244" viewBox="0 0 55 50.0002" fill="none" xmlns="http://www.w3.org/2000/svg" xmlns:xlink="http://www.w3.org/1999/xlink">
	<desc>
			Created with Pixso.
	</desc>
	<defs/>
	<path id="Vector" d="M54.3613 35.7739C52.2236 35.3821 50.6113 36.7861 48.5928 34.6941C48.0654 34.1477 47.3037 34.4556 47.0615 35.1211C45.3291 39.8962 41.7256 37.5891 40.0742 34.2444C39.7539 33.5972 38.8477 33.6531 38.5146 34.2444C37.374 37.1934 35.1758 37.5564 31.9209 35.334C31.4043 34.8564 30.5557 35.0171 30.3613 35.7688C28.9443 41.2505 23.9932 39.7444 22.4668 35.24C22.3906 35.0132 22.2256 34.9031 22.0537 34.8833C21.7061 34.4246 20.9199 34.2871 20.6494 34.9304C18.6982 39.563 15.0762 38.8538 12.8213 34.9365C12.4141 34.2297 11.5742 34.4749 11.3076 35.1458C9.41113 39.9114 3.88672 39.8018 3.98535 34.073C3.99609 33.4387 3.09668 33.314 2.94434 33.9246C1.16504 41.064 9.4375 42.302 12.3027 37.0613C15.2627 40.6157 19.7002 41.3452 21.8174 36.5615C23.623 41.8079 29.5225 42.8398 31.7148 37.6196C34.499 39.5842 37.1514 39.2756 39.2441 36.4846C41.7959 40.3325 46.3428 41.75 48.3613 37.002C50.2139 38.3257 51.4434 37.3997 54.123 37.6265C55.124 37.7117 55.3525 35.9558 54.3613 35.7739Z" fill-rule="nonzero" fill="#00B2A0"/>
	<path id="Vector" d="M51.0117 43.4668C50.1729 44.9219 49.8828 46.2261 48.0869 46.9373C45.876 47.8135 43.6748 45.7229 42.585 44.0088C42.209 43.4172 41.2969 43.3035 40.9453 44.0088C39.4062 47.1006 35.9971 46.3457 34.543 43.3616C34.1855 42.6277 32.9756 42.7585 32.8271 43.5984C32.0098 48.2241 28.3398 48.7136 25.8818 45.3611C26.1504 44.4583 24.751 43.8438 24.3691 44.7273C22.3057 49.5068 18.2773 48.9729 15.9395 44.7078C15.5342 43.9675 14.625 44.2271 14.3623 44.9253C12.4629 49.9888 9.50293 47.5801 7.84277 44.0947C7.51855 43.4155 6.59668 43.6509 6.40137 44.2937C5.49414 47.2871 3.99902 47.8462 1.47949 48.6206C1.00586 48.7666 1.0791 49.636 1.60059 49.5627C4.48633 49.1565 6.0625 48.614 7.24219 46.3442C9.66602 50.3408 13.0498 51.1572 15.3193 46.9517C18.2637 50.8433 22.9922 51.2871 25.335 46.657C27.9375 50.3958 32.3018 50.2117 34.0498 46.1375C36.3047 48.9465 39.5859 49.3411 41.8564 46.1978C45.2354 49.7856 52.1465 50.5886 52.3926 43.8625C52.4229 43.0605 51.3828 42.8228 51.0117 43.4668Z" fill-rule="nonzero" fill="#00B2A0"/>
	<path id="Vector" d="M15.5215 7.50513C14.9561 7.67896 14.7324 8.12744 14.75 8.58032C10.7412 9.20581 8.14648 13.3831 7.83691 17.5845C7.41309 23.333 12.0361 26.7097 17.0488 26.2808C22.1748 25.8428 25.5088 21.0024 25.3584 15.8008C25.208 10.605 20.5469 5.95776 15.5215 7.50513ZM16.3564 23.6528C12.6768 23.9717 10.2969 21.3479 10.3672 17.5845C10.4414 13.6401 13.3027 11.0391 16.6201 9.99927C16.6807 9.97998 16.7246 9.94727 16.7744 9.91846C20.0078 10.4512 22.4541 11.7505 22.7969 15.8C23.1543 20.0005 20.2334 23.3164 16.3564 23.6528Z" fill-rule="nonzero" fill="#00B2A0"/>
	<path id="Vector" d="M10.8564 7.3313C10.2539 6.63794 9.58496 6.02881 8.90039 5.42749C8.22168 4.8313 7.50195 3.67773 6.54492 3.77197C6.03809 3.82202 5.69531 4.16138 5.65918 4.70703C5.59277 5.74268 6.55957 6.25146 7.2627 6.77954C8.06641 7.38281 8.90137 7.92261 9.64746 8.60864C10.4756 9.37012 11.6084 8.19482 10.8564 7.3313Z" fill-rule="nonzero" fill="#00B2A0"/>
	<path id="Vector" d="M5.30957 10.4497C5.63086 10.4907 5.34668 10.4414 5.26172 10.4133C5.13184 10.3699 5.00391 10.3179 4.87598 10.2659C4.73145 10.2078 4.58887 10.1448 4.44531 10.082C4.43652 10.0776 4.43066 10.0754 4.41699 10.0686C4.28027 9.79272 4.04688 9.57056 3.74609 9.47095C3.20801 9.29248 2.39062 8.86597 1.80957 9.05859C1.48145 9.16772 1.1377 9.45483 1.07324 9.83643C1.07324 9.83643 1.07324 9.83813 1.07324 9.83862C1.0127 10.2004 1.03906 10.6709 1.34473 10.9224C1.51465 11.0618 1.71387 11.1604 1.9209 11.2454C1.75293 11.2449 1.88867 11.2532 2.04102 11.2905C2.14844 11.3296 2.25488 11.3696 2.36621 11.4009C2.63281 11.4958 2.90039 11.5923 3.16602 11.6907C3.31934 11.7476 3.47656 11.7527 3.62793 11.7236C4.1748 11.8772 4.77344 12.051 5.30957 12.0166C6.28418 11.9536 6.24219 10.5691 5.30957 10.4497Z" fill-rule="nonzero" fill="#00B2A0"/>
	<path id="Vector" d="M3.63965 19.2588C3.23047 19.6211 2.75293 19.905 2.28809 20.1772C2.04688 20.3181 1.79883 20.4639 1.54102 20.5667C1.38672 20.6279 1.14062 20.5764 1.48047 20.6421C1.31152 20.6099 1.15137 20.6064 0.983398 20.5872C-0.430664 20.426 -0.302734 23.1243 1.25781 22.7222C1.83203 22.5742 2.41895 21.9954 2.90723 21.6243C3.47363 21.1943 4.04004 20.7241 4.50684 20.1741C5.04102 19.5459 4.24121 18.7258 3.63965 19.2588Z" fill-rule="nonzero" fill="#00B2A0"/>
	<path id="Vector" d="M7.24512 24.6062C6.76562 25.3831 6.3291 26.1882 5.87305 26.9805C5.37891 27.8384 4.54199 28.478 4.43164 29.5046C4.36133 30.1602 5.04102 30.4849 5.54297 30.3987C6.56934 30.2229 7.07031 28.8438 7.44531 27.9502C7.83203 27.0286 8.07031 26.0615 8.37988 25.1108C8.61816 24.3787 7.61426 24.0081 7.24512 24.6062Z" fill-rule="nonzero" fill="#00B2A0"/>
	<path id="Vector" d="M16.9434 27.3987C16.8418 26.8501 16.0391 26.8765 15.9219 27.3987C15.6123 28.7715 15.251 30.1326 14.9473 31.5066C14.874 31.8384 14.9375 32.2222 15.1865 32.4609C15.1455 32.4033 15.1504 32.4146 15.2002 32.4944C15.4971 33.0068 16.1211 32.9482 16.4287 32.4944C16.1475 32.9087 16.6279 32.2937 16.6445 32.2622C16.7578 32.0579 16.7676 31.8433 16.7793 31.614C16.8047 31.1392 16.8574 30.6658 16.9004 30.1924C16.9854 29.2698 17.1123 28.3171 16.9434 27.3987Z" fill-rule="nonzero" fill="#00B2A0"/>
	<path id="Vector" d="M27.6074 28.2097C26.873 27.0974 25.707 26.3833 25.04 25.2346C24.583 24.4478 23.5371 25.1331 23.8896 25.9446C24.1953 26.6477 24.6631 27.2317 25.1455 27.8074C25.376 28.082 25.6113 28.3503 25.8145 28.6487C26.0908 29.0559 26.2041 29.5134 26.7432 29.5928C27.0537 29.6382 27.4072 29.5735 27.5635 29.2397C27.5781 29.2087 27.5928 29.178 27.6074 29.147C27.7412 28.8625 27.792 28.49 27.6074 28.2097Z" fill-rule="nonzero" fill="#00B2A0"/>
	<path id="Vector" d="M31.8789 19.9104C30.6436 19.9792 29.4072 20.0452 28.1719 20.1101C27.0596 20.1687 27.0596 21.8735 28.1719 21.9326C29.4082 21.9978 30.6436 22.064 31.8789 22.1321C33.2363 22.2075 33.2363 19.8354 31.8789 19.9104Z" fill-rule="nonzero" fill="#00B2A0"/>
	<path id="Vector" d="M31.8799 7.09888C30.7588 7.07422 29.8525 8.49609 29.1807 9.32202C28.459 10.2092 27.8242 11.1709 27.0889 12.0464C26.5264 12.7156 27.3936 13.6418 28.0195 13.03C28.7617 12.3049 29.4355 11.5078 30.1484 10.751C30.5498 10.3237 30.9668 9.89331 31.4229 9.53052C31.9844 9.08496 32.4258 8.94043 32.6748 8.20142C32.8604 7.65308 32.3838 7.11011 31.8799 7.09888Z" fill-rule="nonzero" fill="#00B2A0"/>
	<path id="Vector" d="M26.4932 1.29639C25.8301 1.74585 25.3867 2.47583 24.9307 3.14331C24.3994 3.92139 23.8945 4.70337 23.2793 5.41284C22.583 6.2168 23.666 7.37305 24.4141 6.61108C24.9941 6.01904 25.5078 5.37378 26.0117 4.70923C26.5518 3.99585 27.249 3.34253 27.6943 2.56421C28.1406 1.78369 27.2412 0.789551 26.4932 1.29639Z" fill-rule="nonzero" fill="#00B2A0"/>
	<path id="Vector" d="M18.2031 0.226562C17.8799 -0.0754395 17.4561 -0.0754395 17.1328 0.226562C16.498 0.819824 16.791 1.85522 16.8438 2.64478C16.9043 3.55054 16.9697 4.45557 17.0479 5.36011C17.1201 6.20361 18.2158 6.20361 18.2891 5.36011C18.3662 4.45508 18.4316 3.55103 18.4922 2.64478C18.5449 1.85571 18.8379 0.819336 18.2031 0.226562Z" fill-rule="nonzero" fill="#00B2A0"/>
</svg>
