<svg width="50.000000" height="50.000000" viewBox="0 0 50 50" fill="none" xmlns="http://www.w3.org/2000/svg" xmlns:xlink="http://www.w3.org/1999/xlink">
	<desc>
			Created with Pixso.
	</desc>
	<defs/>
	<path id="Vector" d="M48.4375 30.4592C45.7266 31.1162 43.5049 32.3801 41.6309 34.1838C40.2578 31.844 38.3174 29.6006 36.5918 27.5808C35.4941 26.2971 34.1143 24.4033 32.2939 24.0383C32.5039 23.8843 32.6709 23.6553 32.7539 23.3411C32.9961 22.439 33.3984 21.6091 34.0098 20.8782C34.3086 20.5205 34.6846 20.2144 35.0488 19.9197C35.2158 19.7849 35.4219 19.7119 35.5771 19.5627C35.7812 19.3682 35.8818 19.072 36.0176 18.8286C37.875 16.8684 39.4756 14.1689 40.8906 12.189C42.8076 9.5061 45.4639 5.37476 43.3047 2.17432C40.96 -1.30029 35.9141 0.0290527 32.9727 1.75562C28.4805 4.39258 25.2939 8.72559 22.2676 12.7798C22.2227 12.6143 22.1436 12.45 22.0166 12.2937C18.7373 8.23364 6.83691 -2.70728 1.48242 3.97778C-3.78027 10.5486 6.13574 19.811 12.9775 22.1946C8.06055 24.9834 4.53516 30.7263 2.91211 35.7681C2.05078 38.4453 1.64453 44.9602 5.30273 46.1736C8.60645 47.2695 11.9473 43.4912 13.8604 41.49C16.9443 38.2632 19.5342 34.645 22.2881 31.1643C22.3359 31.3569 22.4111 31.5674 22.5508 31.8235C23.4375 33.4463 24.8604 34.5977 26.3555 35.6973C28.3086 37.1335 30.5137 38.2688 32.6973 39.3447C33.9248 39.9495 35.3848 40.8252 36.832 41.0933C34.7451 43.3284 33.583 45.634 34.0146 48.8176C34.1406 49.7451 34.9736 50.2756 35.8994 49.8523C39.4932 48.2085 42.4219 44.939 44.7891 41.9678C47.1562 38.9968 49.79 35.4663 49.998 31.5972C50.041 30.8127 49.1816 30.2788 48.4375 30.4592ZM42.2451 41.196C40.6094 43.1699 38.6875 45.2686 36.4482 46.7522C36.5859 44.7759 37.3076 42.979 38.3145 41.0881C38.3232 41.071 38.3232 41.0537 38.3301 41.0366C38.8672 40.7405 39.0146 40.0354 38.5566 39.5203C37.7344 38.5955 36.4434 38.1997 35.3193 37.6953C33.5488 36.8997 31.8232 36.0176 30.1406 35.0637C28.4482 34.1045 26.8564 32.9961 25.4619 31.666C25.0586 31.2812 23.3955 29.687 23.3232 29.1367C23.29 28.8918 22.9551 28.8005 22.835 29.0159C22.2998 28.5054 21.2432 28.3606 20.6348 29.1169C16.7676 33.9204 13.082 40.5049 7.41797 43.5623C4.1084 45.3486 5.4502 36.9417 5.875 35.6973C7.51172 30.9001 11.0127 26.4971 14.5469 22.8403C14.6152 22.7693 14.6631 22.6943 14.6953 22.6179C15.542 22.5691 16.0869 21.3853 15.168 20.989C10.5264 18.9871 -0.0205078 11.4778 3.37012 5.78979C6.64844 0.29126 17.9453 11.666 20.2363 13.9983C20.7627 14.5342 21.3828 14.4646 21.8086 14.1208C22.0537 14.4353 22.5801 14.5864 22.9189 14.2456C25.793 11.3586 28.6318 8.479 31.7559 5.8335C33.4404 4.40674 35.3145 3.15942 37.5117 2.61377C39.7002 2.07031 41.6924 3.47656 41.292 5.58594C40.6953 8.73169 37.9922 11.6902 36.0342 14.1628C35.1494 15.2808 33.2578 16.9458 32.9258 18.5637C32.7373 18.6848 32.5498 18.8137 32.3613 18.9578C31.1797 19.8601 30.4746 21.271 30.0684 22.6316C29.7246 23.7812 30.9375 24.4758 31.8604 24.2385C31.875 24.4016 32.123 24.4641 32.2305 24.3152C31.4209 25.426 34.1553 28.5366 34.8408 29.5327C36.4404 31.8567 38.0811 34.2585 39.835 36.479C39.8125 37.3508 41.1699 38.1226 41.8877 37.3154C43.4678 35.5381 45.1025 34.189 47.2129 33.3359C46.3691 36.2275 44.0654 39.0005 42.2451 41.196Z" fill-rule="nonzero" fill="#00B2A0"/>
</svg>
