<svg width="50.000977" height="50.000000" viewBox="0 0 50.001 50" fill="none" xmlns="http://www.w3.org/2000/svg" xmlns:xlink="http://www.w3.org/1999/xlink">
	<desc>
			Created with Pixso.
	</desc>
	<defs/>
	<path id="Vector" d="M43.9961 47.7222C43.8516 47.7141 43.7041 47.7065 43.5586 47.699C43.8232 47.123 43.4785 46.3137 42.8525 46.1614C41.0156 45.7131 39.123 45.9451 37.2285 45.3811C34.1875 44.4763 31.3564 42.8232 28.7432 41.0342C23.582 37.4995 18.0693 30.9614 25.208 26.3245C26.0518 25.7764 25.8066 24.137 24.6553 24.2515C22.8643 24.4299 21.0703 24.5269 19.2734 24.6292C20.2236 24.0898 20.9951 22.8291 21.5918 22.083C22.7969 20.5762 24.1816 19.9739 26.0879 19.8577C27.2832 19.7849 27.4609 18.1985 26.3633 17.7888C26.1562 17.7117 25.9561 17.3936 25.7607 17.2568C25.3008 16.9336 24.8301 16.6816 24.3203 16.4487C23.8486 16.2332 23.3662 16.0449 22.8828 15.8589C25.2773 15.0164 26.7822 12.1084 29.6699 11.9802C30.7197 11.9338 31.1836 10.73 30.498 9.94458C29.7646 9.10303 29.2168 8.22852 28.6094 7.39551C30.1133 7.32178 31.6143 7.39185 33.1182 7.63428C33.6299 7.71704 34.0654 6.95337 33.5039 6.70459C31.2529 5.70703 28.8057 5.59497 26.4102 5.22852C25.0391 5.01855 24.3408 6.62842 25.4775 7.47778C26.3906 8.15918 26.9961 9.06689 27.6113 9.97949C26.6484 10.2764 25.7529 10.7285 24.8662 11.3904C23.5664 12.3601 21.957 13.3708 21.0107 14.6968C20.6992 15.1331 20.958 15.7471 21.3926 15.9812C21.4111 16.0916 21.4668 16.1948 21.5781 16.2595C22.166 16.6025 22.7656 16.925 23.3555 17.2664C23.4775 17.3374 23.8984 17.5959 24.2949 17.8628C22.8906 18.0718 21.623 18.604 20.4961 19.6746C19.8984 20.2429 19.4033 20.9272 18.8633 21.551C18.1748 22.3472 17.3955 22.8032 17.2529 23.9067C17.1797 24.4736 17.7461 24.8274 18.209 24.8796C18.29 24.8889 18.3662 24.8689 18.4453 24.8655C18.0752 25.2539 18.2314 26.0386 18.9258 26.0784C19.8262 26.1301 20.7266 26.1802 21.627 26.2375C17.3389 30.4749 19.7627 36.3584 24.332 40.7136C26.0059 42.3081 29.7812 45.2524 33.6807 47.1853C21.1611 46.3206 7.57227 43.7341 3.55859 30.3442C1.23145 22.5789 5.08789 14.1448 10.3496 8.64771C13.125 5.74878 16.6777 3.83008 20.5303 2.94165C25.1221 1.88257 28.7402 4.00635 32.7461 5.83569C33.7607 6.29883 34.7637 5.12964 33.959 4.23755C28.3262 -2.00635 18.665 -0.55127 12.2881 3.46973C4.7998 8.19116 0.197266 17.1479 0.00390625 25.9836C-0.195312 35.1638 6.7832 43.2505 14.7686 46.625C24.0957 50.5669 34.1221 50.23 43.9961 49.6504C45.2168 49.5784 45.2178 47.7915 43.9961 47.7222Z" fill-rule="nonzero" fill="#00B2A0"/>
	<path id="Vector" d="M49.8096 44.1406C48.8867 41.9995 47.3164 40.1714 45.4912 38.5857C45.5098 34.9077 45.5547 31.2283 45.5225 27.5503C45.5215 27.4199 45.5068 27.2988 45.4814 27.1853C45.6133 25.8022 45.5117 24.4548 45.2754 23.1052C45.2773 23.1042 45.2793 23.1025 45.2812 23.1016C46.1396 22.8657 46.835 22.1592 47.5156 21.6064C48.0615 21.1628 48.6123 20.7129 49.127 20.2283C49.2314 20.1423 49.3291 20.0488 49.4258 19.9551C50.9141 18.4956 48.6553 16.2063 47.1631 17.6531C46.9404 17.8691 46.7021 18.0676 46.4639 18.2654C46.3066 18.396 46.1455 18.5237 45.9863 18.6519C45.9014 18.7195 45.8164 18.7871 45.7314 18.8542C45.9619 18.6716 45.5371 19.0044 45.54 19.002C45.2031 19.2634 44.833 19.5137 44.4863 19.7886C44.2441 18.9419 43.9385 18.05 43.4736 17.3477C43.8545 17.166 44.2207 16.9656 44.5479 16.7317C45.9082 15.761 47.0996 14.0806 46.4492 12.3103C46.0664 11.2695 45.332 10.5298 44.4111 9.95386C44.209 9.82715 43.9834 9.71094 43.7607 9.59375C43.6289 9.35864 43.4814 9.13086 43.2979 8.92163C43.21 8.82129 43.1211 8.74463 43.0322 8.66235C43.0664 8.38647 42.9043 8.0874 42.5635 8.10107C42.4209 8.10669 42.2812 8.104 42.1406 8.10278C41.7783 7.98267 41.418 7.98193 41.0674 8.06982C39.9297 8.02124 38.8613 8.0354 37.8623 8.94434C37.1924 9.55322 36.8965 10.3369 36.8896 11.1765C35.9521 13.4358 35.6982 16.2214 38.0967 17.52C38.4873 17.7314 38.9102 17.8608 39.3447 17.9502C39.0947 18.8149 38.9062 19.686 38.7568 20.5645C37.1982 20.9138 35.5811 21.8149 34.2656 22.3608C32.335 22.9727 33.1377 26.0093 35.1035 25.4514C36.2139 25.136 37.2822 24.6799 38.3535 24.2473C38.3047 25.095 38.2783 25.9521 38.2676 26.8215C38.2646 27.0107 38.3193 27.2217 38.4033 27.4211C38.126 28.2871 37.8389 29.2695 37.6514 30.2349C37.4023 31.1155 37.1494 31.9956 36.876 32.8694C34.2354 31.4016 30.748 29.8694 28.4814 31.3911C28.4746 31.3823 28.4668 31.3738 28.46 31.3647C27.6357 30.2478 25.9092 31.1899 26.582 32.4822C30.8105 40.5991 39.1973 45.1509 47.8281 46.7642C49.4268 47.0627 50.4424 45.6079 49.8096 44.1406ZM30.9287 34.2769C31.2246 34.3433 31.5342 34.4441 31.8369 34.5293C31.7998 34.7668 31.8359 35.0149 31.9619 35.231C31.9902 35.2793 32.0273 35.3228 32.0566 35.3704C31.6748 35.0146 31.2949 34.6572 30.9287 34.2769ZM39.5996 34.4639C39.6846 34.4089 39.7656 34.3406 39.8379 34.252C40.3809 33.5886 40.5088 32.8279 40.6172 32.0239C41.0996 30.9932 41.5195 29.9409 41.8711 28.8682C42.0684 28.8955 42.2695 28.9109 42.4697 28.9312C42.46 31.3862 42.4697 33.8413 42.4873 36.2964C41.5225 35.6401 40.5449 35.0312 39.5996 34.4639Z" fill-rule="nonzero" fill="#00B2A0"/>
</svg>
