<svg width="60.000000" height="63.000000" viewBox="0 0 60 63" fill="none" xmlns="http://www.w3.org/2000/svg" xmlns:xlink="http://www.w3.org/1999/xlink">
	<desc>
			Created with Pixso.
	</desc>
	<defs/>
	<path id="W" d="M11.412 21.0721L16.02 21.0721L18.936 29.5321L21.888 21.0721L26.46 21.0721L22.068 32.7001L25.308 40.8361L32.544 21L37.944 21L27.72 46.5601L23.436 46.5601L18.936 35.8321L14.472 46.5601L10.188 46.5601L0 21L5.328 21L12.6 40.8361L15.768 32.7001L11.412 21.0721Z" fill-rule="evenodd" fill="#FFFFFF"/>
	<path id="W" d="M33.412 0.0720501L38.02 0.0720501L40.936 8.53205L43.888 0.0720501L48.46 0.0720501L44.068 11.7001L47.308 19.8361L54.544 4.95911e-05L59.944 4.95911e-05L49.72 25.5601L45.436 25.5601L40.936 14.8321L36.472 25.5601L32.188 25.5601L22 4.95911e-05L27.328 4.95911e-05L34.6 19.8361L37.768 11.7001L33.412 0.0720501Z" fill-rule="evenodd" fill="#FFFFFF"/>
</svg>
