<svg width="293.000000" height="15.000000" viewBox="0 0 293 15" fill="none" xmlns="http://www.w3.org/2000/svg" xmlns:xlink="http://www.w3.org/1999/xlink">
	<desc>
			Created with Pixso.
	</desc>
	<defs/>
	<path id="Vector" d="M285.1 1.23267C280.303 4.29907 278.645 7.04688 268.37 8.54565C255.724 10.3918 243.135 5.98682 236.902 2.37476C234.752 1.12793 229.536 0.888428 227.527 2.37476C218.725 8.88989 199.228 7.29907 190.907 1.01123C188.862 -0.535645 181.945 -0.259521 181.096 1.51001C176.421 11.2573 155.432 12.2888 141.373 5.22412C142.908 3.32178 134.904 2.0271 132.722 3.88892C120.921 13.9604 97.8828 12.8352 84.5117 3.84741C82.1904 2.2876 76.9922 2.83472 75.4922 4.30615C64.625 14.9758 47.6992 9.90015 38.2012 2.55591C36.3516 1.12476 31.0752 1.62036 29.96 2.9751C24.7695 9.28296 16.2178 10.4609 1.81152 12.0928C-0.901367 12.4006 -0.482422 14.2327 2.50098 14.0781C19.0078 13.2219 28.0234 12.0791 34.7705 7.29565C48.6309 15.7178 67.9814 17.438 80.9658 8.57617C97.8018 16.7766 124.847 17.7114 138.246 7.95508C153.131 15.8335 178.092 15.4456 188.088 6.8606C200.983 12.7793 219.753 13.6108 232.738 6.9873C252.063 14.5479 291.587 16.24 292.996 2.06689C293.172 0.376465 287.222 -0.124512 285.1 1.23267Z" fill-rule="nonzero" fill="#00B2A0"/>
</svg>
